<svg width="174" height="23" viewBox="0 0 174 23" fill="none" xmlns="http://www.w3.org/2000/svg">
<path d="M19.5367 10.277V20.85C17.8796 21.3941 16.3091 21.7898 14.8252 22.0371C13.3413 22.2844 12.0923 22.4081 11.0783 22.4081C7.71469 22.4081 5.08071 21.5301 3.17634 19.7741C1.27196 18.0181 0.319772 15.3223 0.319772 11.6867C0.319772 7.97686 1.32143 5.20686 3.32473 3.37668C5.32803 1.52177 8.1475 0.594315 11.7831 0.594315C13.6875 0.594315 15.9752 0.878735 18.6463 1.44757C18.6463 1.94222 18.5968 2.68418 18.4979 3.67347C18.399 4.63802 18.3001 5.31816 18.2011 5.71387L16.8656 5.67677C15.2333 5.62731 13.9596 5.60258 13.0445 5.60258C10.2992 5.60258 8.8029 5.76334 8.55558 6.08485C8.15987 6.55477 7.87545 7.28436 7.70232 8.27365C7.55393 9.26294 7.47973 10.2151 7.47973 11.1302C7.47973 12.7873 7.66522 14.0733 8.03621 14.9884C8.40719 15.9035 8.97603 16.5466 9.74273 16.9175C10.5094 17.2885 11.5482 17.474 12.859 17.474H13.0074V10.277H19.5367ZM32.9294 4.56383C33.2509 4.56383 33.5848 4.60092 33.9311 4.67512C34.3021 4.74932 34.5741 4.83588 34.7472 4.93481C34.7472 5.47892 34.6854 6.38164 34.5617 7.64298C34.4381 8.87959 34.3268 9.75758 34.2279 10.277C33.9805 10.2522 33.523 10.2399 32.8552 10.2399C31.2971 10.2399 29.9121 10.3264 28.7002 10.4995V22H22.3564V4.93481H27.6615L28.4034 7.68008H28.4405C29.1578 6.74026 29.9245 5.98593 30.7406 5.41709C31.5568 4.84825 32.2864 4.56383 32.9294 4.56383ZM44.649 22.4823C41.6811 22.4823 39.4552 21.7898 37.9713 20.4048C36.5121 18.995 35.7825 16.7815 35.7825 13.7642C35.7825 12.1071 35.9309 10.6603 36.2277 9.4237C36.5492 8.16236 36.9325 7.28436 37.3777 6.78972C37.9466 6.14668 38.9853 5.61494 40.494 5.1945C42.0274 4.77405 43.4618 4.56383 44.7974 4.56383C47.9878 4.56383 50.2632 5.24396 51.6235 6.60423C52.9837 7.9645 53.6639 10.1409 53.6639 13.1335C53.6639 16.3487 52.9343 18.7106 51.4751 20.2193C50.0159 21.7279 47.7405 22.4823 44.649 22.4823ZM44.7603 18.1418C45.7248 18.1418 46.3555 17.8079 46.6523 17.1401C46.9491 16.4476 47.0975 15.2358 47.0975 13.5045C47.0975 12.2926 47.0356 11.3652 46.912 10.7221C46.7883 10.0544 46.5534 9.57209 46.2071 9.2753C45.8856 8.95379 45.3786 8.79303 44.6861 8.79303C43.6968 8.79303 43.128 8.87959 42.9796 9.05271C42.7817 9.22584 42.6209 9.76995 42.4973 10.685C42.3736 11.6001 42.3118 12.5523 42.3118 13.5416C42.3118 15.2234 42.4726 16.4105 42.7941 17.103C43.1403 17.7955 43.7957 18.1418 44.7603 18.1418ZM70.4424 21.4806C68.4391 22.1484 66.2008 22.4823 63.7276 22.4823C60.9576 22.4823 58.8801 21.7898 57.4951 20.4048C56.1348 18.995 55.4547 16.8062 55.4547 13.8384C55.4547 12.3792 55.6526 10.9447 56.0483 9.53499C56.444 8.10053 56.8644 7.13597 57.3096 6.64133C57.829 6.07249 58.843 5.59021 60.3517 5.1945C61.8851 4.79878 63.4679 4.60093 65.1003 4.60093C66.8068 4.60093 68.5257 4.74932 70.2569 5.0461C70.2074 5.66441 70.1209 6.39401 69.9972 7.2349C69.8983 8.05106 69.787 8.78066 69.6633 9.4237C68.1299 9.32477 66.6831 9.2753 65.3228 9.2753C63.9873 9.2753 63.134 9.3495 62.7631 9.49789C62.5652 9.57209 62.3797 10.0791 62.2066 11.0189C62.0582 11.9587 61.984 12.8367 61.984 13.6529C61.984 14.7411 62.1324 15.582 62.4292 16.1756C62.7507 16.7444 63.2453 17.1401 63.9131 17.3627C64.5809 17.5853 65.4836 17.6966 66.6213 17.6966C67.1159 17.6966 68.2041 17.6471 69.8859 17.5482L70.4424 21.4806ZM82.9199 17.5482C83.5382 17.5482 84.6882 17.4864 86.37 17.3627C86.5926 17.3627 87.0007 17.338 87.5943 17.2885L88.1507 21.1096C86.2464 22 83.7731 22.4452 80.7311 22.4452C77.8869 22.4452 75.6981 21.7279 74.1647 20.2935C72.656 18.859 71.9017 16.695 71.9017 13.8013C71.9017 12.3174 72.0872 10.8829 72.4582 9.49789C72.8539 8.11289 73.2991 7.14834 73.7937 6.60423C74.3131 6.06012 75.2776 5.59021 76.6874 5.1945C78.0971 4.79878 79.4945 4.60093 80.8795 4.60093C83.1054 4.60093 84.7748 4.99664 85.8877 5.78807C87.0007 6.5795 87.7303 7.68008 88.0765 9.08981C88.4228 10.4748 88.5959 12.3421 88.5959 14.6916C86.9141 14.7906 85.2694 14.84 83.6618 14.84H78.3939C78.3939 15.6315 78.5547 16.225 78.8762 16.6208C79.2224 17.0165 79.7047 17.2762 80.323 17.3998C80.9413 17.4987 81.8069 17.5482 82.9199 17.5482ZM78.7649 9.01562C78.6165 9.08981 78.5052 9.41133 78.431 9.98017C78.3568 10.549 78.3073 11.192 78.2826 11.9093H80.2117C81.3741 11.9093 82.215 11.8969 82.7344 11.8722C82.7344 10.685 82.5613 9.84414 82.215 9.3495C81.8935 8.85486 81.3247 8.60753 80.5085 8.60753C79.8407 8.60753 79.2595 8.74356 78.7649 9.01562ZM101.402 4.56383C101.723 4.56383 102.057 4.60092 102.403 4.67512C102.774 4.74932 103.046 4.83588 103.22 4.93481C103.22 5.47892 103.158 6.38164 103.034 7.64298C102.91 8.87959 102.799 9.75758 102.7 10.277C102.453 10.2522 101.995 10.2399 101.328 10.2399C99.7694 10.2399 98.3844 10.3264 97.1726 10.4995V22H90.8288V4.93481H96.1338L96.8758 7.68008H96.9129C97.6301 6.74026 98.3968 5.98593 99.213 5.41709C100.029 4.84825 100.759 4.56383 101.402 4.56383ZM105.034 0.854001H120.43V5.30579H111.712V9.16401H119.057V13.1706H111.712V17.474H120.393V22H105.034V0.854001ZM133.092 22L132.499 19.6628C131.361 21.5177 129.778 22.4452 127.75 22.4452C126.093 22.4452 124.733 21.9876 123.669 21.0725C122.631 20.1327 122.111 18.8219 122.111 17.1401C122.111 16.1014 122.408 15.1987 123.002 14.432C123.62 13.6405 124.461 13.0841 125.524 12.7625C126.909 12.3668 129.049 12.1442 131.942 12.0948C131.942 10.4624 131.868 9.59682 131.72 9.49789C131.596 9.39896 131.2 9.3495 130.533 9.3495C130.112 9.3495 129.531 9.37423 128.789 9.4237C127.602 9.47316 125.994 9.60919 123.966 9.83178C123.768 8.49624 123.62 7.06177 123.521 5.52838C124.832 5.25633 126.204 5.03374 127.639 4.86061C129.073 4.66276 130.359 4.56383 131.497 4.56383C133.476 4.56383 134.96 4.89771 135.949 5.56548C136.938 6.20852 137.581 7.06177 137.878 8.12526C138.175 9.18874 138.311 10.5366 138.286 12.169L138.249 17.6224L138.36 22H133.092ZM129.902 18.2902C130.545 18.2902 131.225 18.1665 131.942 17.9192V15.1739H131.646C129.815 15.1739 128.801 15.2729 128.603 15.4707C128.48 15.5944 128.381 15.7799 128.307 16.0272C128.257 16.2745 128.232 16.5095 128.232 16.732C128.232 17.3256 128.368 17.7337 128.641 17.9563C128.913 18.1789 129.333 18.2902 129.902 18.2902ZM154.951 16.2127C154.951 18.4138 154.246 19.9967 152.836 20.9612C151.451 21.9258 149.473 22.4081 146.901 22.4081C145.095 22.4081 143.018 22.1484 140.668 21.629C140.718 21.1344 140.829 20.4295 141.002 19.5144C141.2 18.5746 141.361 17.8574 141.484 17.3627C142.375 17.5111 143.364 17.6348 144.452 17.7337C145.54 17.8079 146.468 17.845 147.235 17.845C147.902 17.845 148.31 17.8079 148.459 17.7337C148.484 17.709 148.508 17.6471 148.533 17.5482C148.582 17.4246 148.607 17.3009 148.607 17.1772C148.607 16.6826 148.298 16.3487 147.68 16.1756C147.482 16.1261 146.728 15.9159 145.417 15.5449C144.106 15.1739 143.03 14.5062 142.189 13.5416C141.373 12.5523 140.965 11.3281 140.965 9.86887C140.965 9.10218 141.138 8.24892 141.484 7.3091C141.831 6.36927 142.202 5.7757 142.597 5.52838C142.894 5.33052 143.611 5.13267 144.749 4.93481C145.887 4.71222 146.938 4.60093 147.902 4.60093C149.955 4.60093 152.02 4.74932 154.098 5.0461C154.098 5.49128 154.036 6.24561 153.912 7.3091C153.789 8.34785 153.677 9.00325 153.578 9.2753C151.476 9.00325 149.782 8.86722 148.496 8.86722C147.828 8.86722 147.395 8.90432 147.197 8.97852C147.148 9.00325 147.099 9.07745 147.049 9.20111C147 9.30004 146.975 9.43606 146.975 9.60919C146.975 9.95544 147.086 10.2028 147.309 10.3512C147.531 10.5243 148.113 10.7345 149.052 10.9818C150.165 11.3033 151.118 11.6372 151.909 11.9835C152.725 12.3297 153.43 12.8491 154.024 13.5416C154.642 14.2341 154.951 15.1245 154.951 16.2127ZM167.405 17.5482C168.024 17.5482 169.174 17.4864 170.855 17.3627C171.078 17.3627 171.486 17.338 172.08 17.2885L172.636 21.1096C170.732 22 168.259 22.4452 165.217 22.4452C162.372 22.4452 160.184 21.7279 158.65 20.2935C157.141 18.859 156.387 16.695 156.387 13.8013C156.387 12.3174 156.573 10.8829 156.944 9.49789C157.339 8.11289 157.785 7.14834 158.279 6.60423C158.799 6.06012 159.763 5.59021 161.173 5.1945C162.583 4.79878 163.98 4.60093 165.365 4.60093C167.591 4.60093 169.26 4.99664 170.373 5.78807C171.486 6.5795 172.216 7.68008 172.562 9.08981C172.908 10.4748 173.081 12.3421 173.081 14.6916C171.4 14.7906 169.755 14.84 168.147 14.84H162.879C162.879 15.6315 163.04 16.225 163.362 16.6208C163.708 17.0165 164.19 17.2762 164.808 17.3998C165.427 17.4987 166.292 17.5482 167.405 17.5482ZM163.25 9.01562C163.102 9.08981 162.991 9.41133 162.916 9.98017C162.842 10.549 162.793 11.192 162.768 11.9093H164.697C165.86 11.9093 166.7 11.8969 167.22 11.8722C167.22 10.685 167.047 9.84414 166.7 9.3495C166.379 8.85486 165.81 8.60753 164.994 8.60753C164.326 8.60753 163.745 8.74356 163.25 9.01562Z" fill="#FECE00"/>
</svg>
