<svg width="169" height="193" viewBox="0 0 169 193" fill="none" xmlns="http://www.w3.org/2000/svg">
<g clip-path="url(#clip0_1_104)" filter="url(#filter0_dd_1_104)">
<path d="M84.5 131.5C83.7399 131.5 83.0315 131.131 82.6017 130.516C74.5945 119.063 67.6686 110.284 62.115 103.243L62.1141 103.242C49.293 86.9889 42.5 78.325 42.5 63.1562C42.5 40.1954 61.3345 21.5 84.5 21.5C107.665 21.5 126.5 40.1954 126.5 63.1562C126.5 78.3084 119.66 87.0393 106.749 103.418L106.748 103.419C101.219 110.434 94.3231 119.182 86.3983 130.516C85.9685 131.131 85.2601 131.5 84.5 131.5Z" fill="url(#paint0_linear_1_104)" stroke="url(#paint1_linear_1_104)" stroke-width="2"/>
<path d="M84.5 86.5C71.8178 86.5 61.5 76.1822 61.5 63.5C61.5 50.8178 71.8178 40.5 84.5 40.5C97.1822 40.5 107.5 50.8178 107.5 63.5C107.5 76.1822 97.1822 86.5 84.5 86.5Z" fill="white"/>
</g>
<defs>
<filter id="filter0_dd_1_104" x="1.5" y="0.5" width="166" height="192" filterUnits="userSpaceOnUse" color-interpolation-filters="sRGB">
<feFlood flood-opacity="0" result="BackgroundImageFix"/>
<feColorMatrix in="SourceAlpha" type="matrix" values="0 0 0 0 0 0 0 0 0 0 0 0 0 0 0 0 0 0 127 0" result="hardAlpha"/>
<feOffset dy="20"/>
<feGaussianBlur stdDeviation="20"/>
<feColorMatrix type="matrix" values="0 0 0 0 1 0 0 0 0 0.680498 0 0 0 0 0 0 0 0 0.29 0"/>
<feBlend mode="normal" in2="BackgroundImageFix" result="effect1_dropShadow_1_104"/>
<feColorMatrix in="SourceAlpha" type="matrix" values="0 0 0 0 0 0 0 0 0 0 0 0 0 0 0 0 0 0 127 0" result="hardAlpha"/>
<feOffset dy="5"/>
<feGaussianBlur stdDeviation="5"/>
<feColorMatrix type="matrix" values="0 0 0 0 1 0 0 0 0 0.680498 0 0 0 0 0 0 0 0 0.26 0"/>
<feBlend mode="normal" in2="effect1_dropShadow_1_104" result="effect2_dropShadow_1_104"/>
<feBlend mode="normal" in="SourceGraphic" in2="effect2_dropShadow_1_104" result="shape"/>
</filter>
<linearGradient id="paint0_linear_1_104" x1="84.5" y1="-22.3025" x2="84.5" y2="169.952" gradientUnits="userSpaceOnUse">
<stop offset="0.630208" stop-color="#FFAE00"/>
<stop offset="1" stop-color="#FFCD1E"/>
</linearGradient>
<linearGradient id="paint1_linear_1_104" x1="84.5" y1="20.5" x2="84.5" y2="132.5" gradientUnits="userSpaceOnUse">
<stop stop-color="#FF9F00"/>
<stop offset="1" stop-color="#FFB800"/>
</linearGradient>
<clipPath id="clip0_1_104">
<rect width="86" height="112" fill="white" transform="translate(41.5 20.5)"/>
</clipPath>
</defs>
</svg>
