<svg width="15" height="19" viewBox="0 0 15 19" fill="none" xmlns="http://www.w3.org/2000/svg">
<path d="M6.84686 17.8984C1.71405 10.5156 0.799988 9.74219 0.799988 7C0.799988 3.27344 3.78827 0.25 7.54999 0.25C11.2766 0.25 14.3 3.27344 14.3 7C14.3 9.74219 13.3508 10.5156 8.21796 17.8984C7.90155 18.3906 7.16327 18.3906 6.84686 17.8984ZM7.54999 9.8125C9.09686 9.8125 10.3625 8.58203 10.3625 7C10.3625 5.45312 9.09686 4.1875 7.54999 4.1875C5.96796 4.1875 4.73749 5.45312 4.73749 7C4.73749 8.58203 5.96796 9.8125 7.54999 9.8125Z" fill="#FFB30E"/>
</svg>
